<?xml version="1.0" encoding="utf-8"?>
<!-- Generator: Adobe Illustrator 25.1.0, SVG Export Plug-In . SVG Version: 6.00 Build 0)  -->
<svg version="1.1" id="Layer_1" xmlns="http://www.w3.org/2000/svg" xmlns:xlink="http://www.w3.org/1999/xlink" x="0px" y="0px"
	 viewBox="0 0 400 228" style="enable-background:new 0 0 400 228;" xml:space="preserve">
<style type="text/css">
	.st0{fill:url(#SVGID_1_);}
	.st1{fill:url(#SVGID_2_);}
	.st2{fill:url(#SVGID_3_);}
	.st3{fill:url(#SVGID_4_);}
	.st4{fill:url(#SVGID_5_);}
	.st5{fill:url(#SVGID_6_);}
	.st6{fill:url(#SVGID_7_);}
	.st7{fill:url(#SVGID_8_);}
	.st8{fill:url(#SVGID_9_);}
	.st9{fill:url(#SVGID_10_);}
	.st10{fill:url(#SVGID_11_);}
	.st11{fill:#567A92;}
</style>
<g>
	<g>
		
			<linearGradient id="SVGID_1_" gradientUnits="userSpaceOnUse" x1="27.289" y1="109.6514" x2="75.6652" y2="158.0276" gradientTransform="matrix(1 0 0 -1 0 230)">
			<stop  offset="0" style="stop-color:#567A92"/>
			<stop  offset="0.8364" style="stop-color:#A3C9E8"/>
		</linearGradient>
		<rect x="44.5" y="89.6" class="st0" width="13.5" height="13.5"/>
		
			<linearGradient id="SVGID_2_" gradientUnits="userSpaceOnUse" x1="36.0532" y1="100.8874" x2="84.4294" y2="149.2636" gradientTransform="matrix(1 0 0 -1 0 230)">
			<stop  offset="0" style="stop-color:#567A92"/>
			<stop  offset="0.8364" style="stop-color:#A3C9E8"/>
		</linearGradient>
		<rect x="62" y="89.6" class="st1" width="13.5" height="13.5"/>
		
			<linearGradient id="SVGID_3_" gradientUnits="userSpaceOnUse" x1="62.3588" y1="74.5821" x2="110.735" y2="122.9583" gradientTransform="matrix(1 0 0 -1 0 230)">
			<stop  offset="0" style="stop-color:#567A92"/>
			<stop  offset="0.8364" style="stop-color:#A3C9E8"/>
		</linearGradient>
		<rect x="79.6" y="124.7" class="st2" width="13.5" height="13.5"/>
		<g>
			
				<linearGradient id="SVGID_4_" gradientUnits="userSpaceOnUse" x1="53.588" y1="83.3526" x2="101.9642" y2="131.7288" gradientTransform="matrix(1 0 0 -1 0 230)">
				<stop  offset="0" style="stop-color:#567A92"/>
				<stop  offset="0.8364" style="stop-color:#A3C9E8"/>
			</linearGradient>
			<rect x="62" y="124.7" class="st3" width="13.5" height="13.5"/>
			
				<linearGradient id="SVGID_5_" gradientUnits="userSpaceOnUse" x1="44.8239" y1="92.1167" x2="93.2001" y2="140.4929" gradientTransform="matrix(1 0 0 -1 0 230)">
				<stop  offset="0" style="stop-color:#567A92"/>
				<stop  offset="0.8364" style="stop-color:#A3C9E8"/>
			</linearGradient>
			<rect x="44.5" y="124.7" class="st4" width="13.5" height="13.5"/>
		</g>
		
			<linearGradient id="SVGID_6_" gradientUnits="userSpaceOnUse" x1="36.0599" y1="100.881" x2="84.4357" y2="149.2568" gradientTransform="matrix(1 0 0 -1 0 230)">
			<stop  offset="0" style="stop-color:#567A92"/>
			<stop  offset="0.8364" style="stop-color:#A3C9E8"/>
		</linearGradient>
		<rect x="44.5" y="107.2" class="st5" width="13.5" height="13.5"/>
		
			<linearGradient id="SVGID_7_" gradientUnits="userSpaceOnUse" x1="44.8241" y1="92.1169" x2="93.1999" y2="140.4928" gradientTransform="matrix(1 0 0 -1 0 230)">
			<stop  offset="0" style="stop-color:#567A92"/>
			<stop  offset="0.8364" style="stop-color:#A3C9E8"/>
		</linearGradient>
		<rect x="62" y="107.2" class="st6" width="13.5" height="13.5"/>
		<g>
			
				<linearGradient id="SVGID_8_" gradientUnits="userSpaceOnUse" x1="44.8238" y1="92.1167" x2="93.2" y2="140.4929" gradientTransform="matrix(1 0 0 -1 0 230)">
				<stop  offset="0" style="stop-color:#567A92"/>
				<stop  offset="0.8364" style="stop-color:#A3C9E8"/>
			</linearGradient>
			<rect x="79.6" y="89.6" class="st7" width="13.5" height="13.5"/>
			
				<linearGradient id="SVGID_9_" gradientUnits="userSpaceOnUse" x1="53.5946" y1="83.3462" x2="101.9706" y2="131.7222" gradientTransform="matrix(1 0 0 -1 0 230)">
				<stop  offset="0" style="stop-color:#567A92"/>
				<stop  offset="0.8364" style="stop-color:#A3C9E8"/>
			</linearGradient>
			<rect x="79.6" y="107.2" class="st8" width="13.5" height="13.5"/>
		</g>
		<g>
			
				<linearGradient id="SVGID_10_" gradientUnits="userSpaceOnUse" x1="49.1994" y1="87.7412" x2="97.5756" y2="136.1174" gradientTransform="matrix(1 0 0 -1 0 230)">
				<stop  offset="0" style="stop-color:#567A92"/>
				<stop  offset="0.8364" style="stop-color:#A3C9E8"/>
			</linearGradient>
			<path class="st9" d="M58,135.6c0-1.1,0.9-2,2-2c1.1,0,2,0.9,2,2h0.9v-8.4H62c0,1.1-0.9,2-2,2c-1.1,0-2-0.9-2-2h-0.9v8.4H58z"/>
		</g>
		<g>
			
				<linearGradient id="SVGID_11_" gradientUnits="userSpaceOnUse" x1="40.4353" y1="96.5053" x2="88.8115" y2="144.8815" gradientTransform="matrix(1 0 0 -1 0 230)">
				<stop  offset="0" style="stop-color:#567A92"/>
				<stop  offset="0.8364" style="stop-color:#A3C9E8"/>
			</linearGradient>
			<path class="st10" d="M47.1,120.7c1.1,0,2,0.9,2,2s-0.9,2-2,2v0.9h8.4v-0.9c-1.1,0-2-0.9-2-2s0.9-2,2-2v-0.9h-8.4V120.7z"/>
		</g>
	</g>
	<g>
		<g>
			<path class="st11" d="M101.5,111V90h3.9v21L101.5,111L101.5,111z"/>
			<path class="st11" d="M108.1,102.2v-3.4h7.9v3.4C116,102.2,108.1,102.2,108.1,102.2z"/>
			<path class="st11" d="M129.7,111.4c-6.2,0-11.1-4.8-11.1-10.9c0-6.2,4.8-10.9,11.1-10.9c6,0,10.8,4.9,10.8,10.9
				C140.5,106.7,135.8,111.4,129.7,111.4z M129.6,93.4c-4,0-7.1,3.1-7.1,7.1c0,4,3.1,7.1,7.1,7.1s6.9-3,6.9-7.1
				C136.6,96.5,133.6,93.4,129.6,93.4z"/>
			<path class="st11" d="M155.4,111l-8.8-15.3V111h-3.9V90h4.4l8.7,15.3V90h3.9v21L155.4,111L155.4,111z"/>
		</g>
		<g>
			<path class="st11" d="M109.9,138.4c-1.3,0-2.5-0.2-3.6-0.7s-2.1-1.1-2.9-2c-0.8-0.8-1.5-1.8-1.9-3c-0.5-1.1-0.7-2.4-0.7-3.7v-0.1
				c0-1.3,0.2-2.5,0.7-3.6s1.1-2.1,1.9-3c0.8-0.9,1.8-1.5,2.9-2c1.1-0.5,2.4-0.7,3.7-0.7c0.8,0,1.6,0.1,2.3,0.2s1.3,0.3,1.9,0.6
				s1.1,0.6,1.6,0.9c0.5,0.4,0.9,0.8,1.4,1.2l-1.4,1.5c-0.8-0.7-1.6-1.3-2.5-1.8c-0.9-0.5-2-0.7-3.2-0.7c-1,0-1.9,0.2-2.8,0.6
				c-0.9,0.4-1.6,0.9-2.2,1.6c-0.6,0.7-1.1,1.5-1.5,2.4c-0.4,0.9-0.5,1.9-0.5,2.9v0.1c0,1.1,0.2,2,0.5,3c0.4,0.9,0.8,1.7,1.5,2.4
				c0.6,0.7,1.4,1.2,2.2,1.6c0.9,0.4,1.8,0.6,2.8,0.6c1.2,0,2.3-0.2,3.2-0.7c0.9-0.5,1.8-1.1,2.7-1.9l1.4,1.3
				c-0.5,0.5-1,0.9-1.5,1.3s-1.1,0.7-1.7,1c-0.6,0.3-1.2,0.5-1.9,0.7C111.5,138.3,110.7,138.4,109.9,138.4z"/>
			<path class="st11" d="M129.2,138.4c-1.4,0-2.7-0.2-3.8-0.8c-1.1-0.5-2.1-1.2-2.9-2s-1.4-1.9-1.9-3s-0.7-2.3-0.7-3.6v-0.1
				c0-1.2,0.2-2.4,0.7-3.6c0.5-1.1,1.1-2.1,1.9-3c0.8-0.9,1.8-1.5,2.9-2.1s2.4-0.8,3.8-0.8c1.4,0,2.7,0.2,3.8,0.8
				c1.1,0.5,2.1,1.2,2.9,2c0.8,0.9,1.4,1.9,1.9,3c0.4,1.1,0.7,2.3,0.7,3.6c0,0,0,0,0,0.1c0,1.2-0.2,2.4-0.7,3.6s-1.1,2.1-1.9,3
				c-0.8,0.9-1.8,1.5-2.9,2.1C131.9,138.1,130.6,138.4,129.2,138.4z M129.3,136.5c1,0,2-0.2,2.9-0.6s1.6-0.9,2.3-1.6
				s1.1-1.5,1.5-2.4c0.4-0.9,0.5-1.9,0.5-2.9v-0.1c0-1-0.2-2-0.5-2.9c-0.4-0.9-0.9-1.7-1.5-2.4c-0.6-0.7-1.4-1.2-2.3-1.6
				s-1.8-0.6-2.9-0.6c-1,0-2,0.2-2.9,0.6c-0.9,0.4-1.6,0.9-2.3,1.6c-0.6,0.7-1.1,1.5-1.5,2.4c-0.4,0.9-0.5,1.9-0.5,2.9v0.1
				c0,1,0.2,2,0.5,2.9c0.4,0.9,0.9,1.7,1.5,2.4c0.6,0.7,1.4,1.2,2.3,1.6S128.3,136.5,129.3,136.5z"/>
			<path class="st11" d="M142.9,119.8h2.1l6.6,10l6.6-10h2.1V138h-2.1v-14.8l-6.6,9.8h-0.1l-6.6-9.7V138h-2
				C142.9,138,142.9,119.8,142.9,119.8z"/>
			<path class="st11" d="M165.5,119.8h2.1l6.6,10l6.6-10h2.1V138h-2.1v-14.8l-6.6,9.8h-0.1l-6.6-9.7V138h-2
				C165.5,138,165.5,119.8,165.5,119.8z"/>
			<path class="st11" d="M195.4,138.3c-1.1,0-2.2-0.2-3.1-0.5c-0.9-0.3-1.7-0.8-2.4-1.5s-1.2-1.5-1.5-2.5c-0.4-1-0.5-2.1-0.5-3.4
				v-10.6h2.1v10.5c0,2,0.5,3.5,1.5,4.6s2.4,1.6,4.1,1.6c1.7,0,3-0.5,4-1.5c1-1,1.5-2.5,1.5-4.5v-10.6h2.1v10.4
				c0,1.3-0.2,2.5-0.5,3.5c-0.4,1-0.9,1.8-1.5,2.5c-0.7,0.7-1.5,1.2-2.4,1.5C197.6,138.2,196.6,138.3,195.4,138.3z"/>
			<path class="st11" d="M207.9,119.8h1.9l11.5,14.6v-14.6h2V138h-1.6l-11.8-15v15h-2V119.8z"/>
			<path class="st11" d="M228.7,119.8h2.1V138h-2.1V119.8z"/>
			<path class="st11" d="M244.4,138.4c-1.3,0-2.5-0.2-3.6-0.7c-1.1-0.5-2.1-1.1-2.9-2c-0.8-0.8-1.5-1.8-1.9-3s-0.7-2.4-0.7-3.7v-0.1
				c0-1.3,0.2-2.5,0.7-3.6s1.1-2.1,1.9-3c0.8-0.9,1.8-1.5,2.9-2c1.1-0.5,2.4-0.7,3.7-0.7c0.8,0,1.6,0.1,2.3,0.2
				c0.7,0.1,1.3,0.3,1.9,0.6c0.6,0.2,1.1,0.6,1.6,0.9c0.5,0.4,0.9,0.8,1.4,1.2l-1.4,1.5c-0.8-0.7-1.6-1.3-2.5-1.8
				c-0.9-0.5-2-0.7-3.2-0.7c-1,0-1.9,0.2-2.8,0.6c-0.9,0.4-1.6,0.9-2.2,1.6c-0.6,0.7-1.1,1.5-1.5,2.4c-0.4,0.9-0.5,1.9-0.5,2.9v0.1
				c0,1.1,0.2,2,0.5,3c0.4,0.9,0.8,1.7,1.5,2.4c0.6,0.7,1.4,1.2,2.2,1.6c0.9,0.4,1.8,0.6,2.8,0.6c1.2,0,2.3-0.2,3.2-0.7
				c0.9-0.5,1.8-1.1,2.7-1.9l1.4,1.3c-0.5,0.5-1,0.9-1.5,1.3c-0.5,0.4-1.1,0.7-1.7,1s-1.2,0.5-1.9,0.7
				C246,138.3,245.2,138.4,244.4,138.4z"/>
			<path class="st11" d="M262,119.7h1.9l8.3,18.4h-2.2l-2.1-4.8H258l-2.2,4.8h-2.1L262,119.7z M267.1,131.4l-4.1-9.3l-4.2,9.3H267.1
				z"/>
			<path class="st11" d="M280.7,121.7h-6.1v-1.9h14.3v1.9h-6.1V138h-2.1V121.7z"/>
			<path class="st11" d="M292.9,119.8h2.1V138h-2.1V119.8z"/>
			<path class="st11" d="M308.8,138.4c-1.4,0-2.7-0.2-3.8-0.8c-1.1-0.5-2.1-1.2-2.9-2c-0.8-0.9-1.4-1.9-1.9-3s-0.7-2.3-0.7-3.6v-0.1
				c0-1.2,0.2-2.4,0.7-3.6c0.5-1.1,1.1-2.1,1.9-3c0.8-0.9,1.8-1.5,2.9-2.1c1.1-0.5,2.4-0.8,3.8-0.8s2.7,0.2,3.8,0.8
				c1.1,0.5,2.1,1.2,2.9,2c0.8,0.9,1.4,1.9,1.9,3c0.4,1.1,0.7,2.3,0.7,3.6c0,0,0,0,0,0.1c0,1.2-0.2,2.4-0.7,3.6
				c-0.5,1.1-1.1,2.1-1.9,3c-0.8,0.9-1.8,1.5-2.9,2.1C311.4,138.1,310.2,138.4,308.8,138.4z M308.8,136.5c1,0,2-0.2,2.9-0.6
				c0.9-0.4,1.6-0.9,2.3-1.6c0.6-0.7,1.1-1.5,1.5-2.4s0.5-1.9,0.5-2.9v-0.1c0-1-0.2-2-0.5-2.9c-0.4-0.9-0.9-1.7-1.5-2.4
				c-0.6-0.7-1.4-1.2-2.3-1.6s-1.8-0.6-2.9-0.6c-1,0-2,0.2-2.9,0.6c-0.9,0.4-1.6,0.9-2.3,1.6c-0.6,0.7-1.1,1.5-1.5,2.4
				c-0.4,0.9-0.5,1.9-0.5,2.9v0.1c0,1,0.2,2,0.5,2.9c0.4,0.9,0.9,1.7,1.5,2.4c0.7,0.7,1.4,1.2,2.3,1.6
				C306.8,136.3,307.8,136.5,308.8,136.5z"/>
			<path class="st11" d="M322.4,119.8h1.9l11.5,14.6v-14.6h2V138h-1.6l-11.8-15v15h-2L322.4,119.8L322.4,119.8z"/>
			<path class="st11" d="M349.3,138.3c-1.5,0-2.8-0.2-4-0.7c-1.2-0.5-2.4-1.2-3.4-2.2l1.3-1.5c0.9,0.9,1.9,1.5,2.9,1.9
				c1,0.4,2.1,0.6,3.4,0.6c1.2,0,2.2-0.3,3-0.9c0.7-0.6,1.1-1.3,1.1-2.2v-0.1c0-0.4-0.1-0.8-0.2-1.1c-0.1-0.3-0.4-0.7-0.7-0.9
				c-0.4-0.3-0.8-0.5-1.4-0.8c-0.6-0.2-1.4-0.4-2.4-0.7c-1-0.2-2-0.5-2.7-0.8c-0.8-0.3-1.4-0.7-1.9-1.1c-0.5-0.4-0.9-0.9-1.1-1.5
				c-0.2-0.6-0.4-1.2-0.4-2v-0.1c0-0.7,0.1-1.4,0.4-2s0.7-1.1,1.2-1.6s1.2-0.8,1.9-1c0.7-0.2,1.5-0.4,2.4-0.4c1.3,0,2.5,0.2,3.5,0.6
				c1,0.4,2,0.9,2.9,1.7l-1.2,1.6c-0.8-0.7-1.7-1.2-2.6-1.5c-0.9-0.3-1.8-0.5-2.7-0.5c-1.2,0-2.1,0.3-2.8,0.8c-0.7,0.6-1,1.3-1,2.1
				v0.1c0,0.4,0.1,0.8,0.2,1.2c0.1,0.3,0.4,0.7,0.8,0.9c0.4,0.3,0.9,0.5,1.5,0.8c0.6,0.2,1.5,0.5,2.5,0.7c2,0.5,3.5,1.1,4.5,1.9
				c1,0.8,1.4,1.9,1.4,3.3v0.1c0,0.8-0.2,1.5-0.5,2.1c-0.3,0.6-0.7,1.2-1.3,1.6c-0.5,0.5-1.2,0.8-2,1
				C351,138.2,350.2,138.3,349.3,138.3z"/>
		</g>
	</g>
</g>
</svg>
